# This file uses centimeters as units for non-parametric coordinates.

mtllib moleMesh.mtl
g default
v 0.707107 0.497899 -0.707107
v 0.000000 0.497899 -1.000000
v -0.707107 0.497899 -0.707107
v -1.000000 0.497899 0.000000
v -0.707107 0.497899 0.707107
v 0.000000 0.497899 1.000000
v 0.707107 0.497899 0.707107
v 1.000000 0.497899 0.000000
v 0.653281 0.878480 -0.653281
v 0.000000 0.878480 -0.923879
v -0.653281 0.878480 -0.653281
v -0.923879 0.878480 0.000000
v -0.653281 0.878480 0.653281
v 0.000000 0.878480 0.923879
v 0.653281 0.878480 0.653281
v 0.923880 0.878480 0.000000
v 0.500000 1.202904 -0.500000
v 0.000000 1.202904 -0.707107
v -0.500000 1.202904 -0.500000
v -0.707107 1.202904 0.000000
v -0.500000 1.202904 0.500000
v 0.000000 1.202904 0.707107
v 0.500000 1.202904 0.500000
v 0.707107 1.202904 0.000000
v 0.270598 1.419677 -0.270598
v 0.000000 1.419677 -0.382683
v -0.270598 1.419677 -0.270598
v -0.382683 1.419677 0.000000
v -0.270598 1.419677 0.270598
v 0.000000 1.419677 0.382683
v 0.270598 1.419677 0.270598
v 0.382683 1.419677 0.000000
v 0.000000 1.495797 0.000000
v 0.957107 0.353553 -0.957107
v 0.000000 0.353553 -1.353553
v -0.957107 0.353553 -0.957107
v -1.353553 0.353553 0.000000
v -0.957107 0.353553 0.957107
v 0.000000 0.353553 1.353553
v 0.957107 0.353553 0.957107
v 1.353553 0.353553 0.000000
v 1.060660 0.000000 -1.060660
v 0.000000 0.000000 -1.500000
v -1.060660 0.000000 -1.060660
v -1.500000 0.000000 0.000000
v -1.060660 0.000000 1.060660
v 0.000000 0.000000 1.500000
v 1.060660 0.000000 1.060660
v 1.500000 0.000000 0.000000
v 0.957107 -0.353553 -0.957107
v 0.000000 -0.353553 -1.353553
v -0.957107 -0.353553 -0.957107
v -1.353553 -0.353553 0.000000
v -0.957107 -0.353553 0.957107
v 0.000000 -0.353553 1.353553
v 0.957107 -0.353553 0.957107
v 1.353553 -0.353553 0.000000
v 0.000000 -0.500000 0.000000
v 0.289886 1.448542 0.278587
v 0.726394 1.231770 0.007989
v 0.401971 1.448542 0.007989
v -0.007989 1.448542 0.401971
v -0.507989 1.231770 0.519287
v -0.278587 1.448542 0.289886
v 0.308771 1.476806 0.286410
v 0.745279 1.260033 0.015812
v 0.420856 1.476806 0.015812
v -0.015812 1.476806 0.420856
v -0.515812 1.260033 0.538172
v -0.286410 1.476806 0.308771
v 0.344960 1.492991 0.267720
v 0.401449 1.485851 0.209807
v 0.636405 1.369171 0.064155
v 0.722435 1.305535 0.033717
v 0.461780 1.485851 0.064155
v 0.441887 1.492991 0.033717
v -0.135512 1.485851 0.432223
v -0.054617 1.492991 0.433230
v -0.486997 1.305535 0.534680
v -0.404642 1.369171 0.495370
v -0.281164 1.485851 0.371892
v -0.288620 1.492991 0.336303
vt 0.247396 0.025251
vt 0.213503 0.025251
vt 0.224801 0.025251
vt 0.236098 0.025251
vt 0.247396 0.025251
vt 0.361536 0.101359
vt 0.653824 0.101359
vt 0.946111 0.101359
vt 0.247396 0.036548
vt 0.213503 0.036548
vt 0.224801 0.036548
vt 0.236098 0.036548
vt 0.247396 0.036548
vt 0.361536 0.393647
vt 0.653824 0.393647
vt 0.946111 0.393647
vt 0.247396 0.047845
vt 0.213503 0.047845
vt 0.224801 0.047845
vt 0.236098 0.047845
vt 0.247396 0.047845
vt 0.361536 0.685934
vt 0.653824 0.685934
vt 0.946956 0.029693
vt 0.247396 0.059143
vt 0.213503 0.059143
vt 0.224801 0.059143
vt 0.236098 0.059143
vt 0.247396 0.059143
vt 0.991802 0.071117
vt 0.269990 0.059143
vt 0.281288 0.059143
vt 0.247396 0.070440
vt 0.033230 0.066680
vt 0.023208 0.066680
vt 0.023208 0.056658
vt 0.033230 0.056658
vt 0.043251 0.066680
vt 0.043251 0.056658
vt 0.053273 0.066680
vt 0.053273 0.056658
vt 0.063294 0.066680
vt 0.063294 0.056658
vt 0.073316 0.066680
vt 0.073316 0.056658
vt 0.083337 0.066680
vt 0.083337 0.056658
vt 0.093358 0.066680
vt 0.093358 0.056658
vt 0.103380 0.066680
vt 0.103380 0.056658
vt 0.023208 0.046637
vt 0.033230 0.046637
vt 0.043251 0.046637
vt 0.053273 0.046637
vt 0.063294 0.046637
vt 0.073316 0.046637
vt 0.083337 0.046637
vt 0.093358 0.046637
vt 0.103380 0.046637
vt 0.101121 0.032222
vt 0.033230 0.036615
vt 0.043251 0.036615
vt 0.053273 0.036615
vt 0.063294 0.036615
vt 0.073316 0.036615
vt 0.083337 0.036615
vt 0.093358 0.036615
vt 0.063436 0.018839
vt 0.269990 0.059143
vt 0.946956 0.029693
vt 0.281288 0.059143
vt 0.247396 0.047845
vt 0.991802 0.071117
vt 0.247396 0.059143
vt 0.255117 0.057911
vt 0.273566 0.057911
vt 0.279647 0.051830
vt 0.249036 0.057911
vt 0.281288 0.047845
vt 0.905532 0.071117
vt 0.281288 0.059143
vt 0.991802 0.071117
vt 0.950379 0.029693
vt 0.247396 0.059143
vt 0.279647 0.057911
vt 0.249036 0.051830
vt 0.269990 0.059143
vt 0.281288 0.047845
vt 0.281288 0.059143
vt 0.258693 0.059143
vt 0.247396 0.047845
vt 0.247396 0.059143
vt 0.653824 0.978222
vt 0.946111 0.685934
vt 0.361536 0.978222
vt 0.069248 0.685934
vt 0.281288 0.036548
vt 0.069248 0.393647
vt 0.281288 0.025251
vt 0.069248 0.101359
vt 0.950379 0.029693
vt 0.247396 0.047845
vt 0.991802 0.071117
vt 0.258693 0.059143
vt 0.950379 0.029693
vt 0.258693 0.059143
vt 0.950379 0.029693
vt 0.258693 0.059143
vt 0.946956 0.029693
vt 0.946956 0.029693
vt 0.905532 0.071117
vt 0.269990 0.059143
vt 0.281288 0.047845
vt 0.905532 0.071117
vt 0.281288 0.047845
vt 0.905532 0.071117
vt 0.026326 0.032270
vn 0.376313 0.181710 -0.908499
vn 0.376313 0.181710 -0.908499
vn 0.376313 0.181710 -0.908499
vn 0.376312 0.181710 -0.908499
vn -0.376313 0.181710 -0.908499
vn -0.376313 0.181710 -0.908499
vn -0.376313 0.181710 -0.908499
vn -0.376312 0.181710 -0.908499
vn -0.908499 0.181710 -0.376313
vn -0.908499 0.181709 -0.376313
vn -0.908499 0.181709 -0.376313
vn -0.908499 0.181709 -0.376313
vn -0.908499 0.181709 0.376313
vn -0.908499 0.181709 0.376313
vn -0.908499 0.181709 0.376313
vn -0.908499 0.181709 0.376313
vn -0.376313 0.181710 0.908499
vn -0.376313 0.181710 0.908499
vn -0.376313 0.181710 0.908499
vn -0.376312 0.181710 0.908499
vn 0.376313 0.181710 0.908499
vn 0.376313 0.181710 0.908499
vn 0.376313 0.181710 0.908499
vn 0.376312 0.181710 0.908499
vn 0.908499 0.181710 0.376313
vn 0.908499 0.181710 0.376313
vn 0.908499 0.181710 0.376313
vn 0.908499 0.181710 0.376313
vn 0.908499 0.181709 -0.376313
vn 0.908499 0.181710 -0.376313
vn 0.908499 0.181710 -0.376313
vn 0.908499 0.181710 -0.376313
vn 0.325635 0.525289 -0.786151
vn 0.325634 0.525289 -0.786151
vn 0.325634 0.525289 -0.786151
vn 0.325634 0.525289 -0.786151
vn -0.325634 0.525289 -0.786151
vn -0.325634 0.525289 -0.786151
vn -0.325634 0.525289 -0.786151
vn -0.325634 0.525289 -0.786151
vn -0.786151 0.525289 -0.325635
vn -0.786151 0.525289 -0.325634
vn -0.786151 0.525289 -0.325635
vn -0.786151 0.525289 -0.325634
vn -0.786151 0.525289 0.325634
vn -0.786151 0.525289 0.325635
vn -0.786151 0.525289 0.325634
vn -0.786151 0.525289 0.325635
vn -0.325635 0.525289 0.786151
vn -0.325635 0.525289 0.786151
vn -0.325635 0.525289 0.786151
vn -0.325635 0.525289 0.786151
vn 0.325634 0.525289 0.786151
vn 0.325634 0.525289 0.786151
vn 0.325634 0.525289 0.786151
vn 0.325635 0.525290 0.786151
vn 0.786151 0.525289 0.325635
vn 0.786151 0.525289 0.325634
vn 0.786151 0.525289 0.325635
vn 0.786151 0.525289 0.325634
vn 0.786151 0.525289 -0.325635
vn 0.786151 0.525289 -0.325635
vn 0.786151 0.525289 -0.325635
vn 0.786151 0.525289 -0.325635
vn 0.224263 0.810291 -0.541419
vn 0.224263 0.810291 -0.541419
vn 0.224263 0.810291 -0.541419
vn 0.224263 0.810291 -0.541419
vn -0.224263 0.810291 -0.541419
vn -0.224263 0.810291 -0.541419
vn -0.224263 0.810291 -0.541419
vn -0.224263 0.810291 -0.541419
vn -0.541419 0.810291 -0.224263
vn -0.541419 0.810291 -0.224263
vn -0.541419 0.810291 -0.224263
vn -0.541419 0.810291 -0.224263
vn -0.541419 0.810291 0.224263
vn -0.541419 0.810291 0.224263
vn -0.541419 0.810291 0.224263
vn -0.541419 0.810291 0.224263
vn -0.224263 0.810291 0.541419
vn -0.224263 0.810291 0.541419
vn -0.224263 0.810291 0.541419
vn 0.224263 0.810291 0.541419
vn 0.224263 0.810291 0.541419
vn 0.224263 0.810291 0.541419
vn 0.224263 0.810291 0.541419
vn 0.541419 0.810291 -0.224263
vn 0.541419 0.810291 -0.224263
vn 0.541419 0.810291 -0.224263
vn 0.541419 0.810291 -0.224263
vn 0.080547 0.977599 -0.194456
vn 0.080547 0.977599 -0.194456
vn 0.080547 0.977599 -0.194456
vn -0.080547 0.977599 -0.194456
vn -0.080547 0.977599 -0.194456
vn -0.080547 0.977599 -0.194456
vn -0.194457 0.977598 -0.080548
vn -0.194457 0.977599 -0.080548
vn -0.194457 0.977599 -0.080548
vn -0.194457 0.977599 0.080547
vn -0.194457 0.977598 0.080547
vn -0.194457 0.977598 0.080547
vn -0.080547 0.977599 0.194456
vn -0.080547 0.977599 0.194456
vn -0.080547 0.977599 0.194456
vn 0.080547 0.977599 0.194456
vn 0.080547 0.977599 0.194456
vn 0.080547 0.977599 0.194456
vn 0.194457 0.977599 0.080546
vn 0.194457 0.977599 0.080546
vn 0.194457 0.977599 0.080546
vn 0.194457 0.977599 -0.080547
vn 0.194457 0.977599 -0.080547
vn 0.194457 0.977599 -0.080547
vn 0.154681 0.914671 -0.373432
vn 0.154681 0.914670 -0.373432
vn 0.154681 0.914671 -0.373432
vn 0.154681 0.914671 -0.373433
vn -0.154681 0.914670 -0.373432
vn -0.154681 0.914670 -0.373432
vn -0.154681 0.914671 -0.373432
vn -0.154681 0.914670 -0.373432
vn -0.373432 0.914671 -0.154681
vn -0.373432 0.914671 -0.154681
vn -0.373432 0.914671 -0.154681
vn -0.373432 0.914670 -0.154681
vn -0.373432 0.914671 0.154681
vn -0.373432 0.914671 0.154681
vn -0.373432 0.914671 0.154681
vn -0.373432 0.914671 0.154681
vn -0.154681 0.914671 0.373432
vn -0.154681 0.914670 0.373432
vn -0.154681 0.914670 0.373432
vn -0.154681 0.914671 0.373433
vn 0.154681 0.914671 0.373432
vn 0.154681 0.914670 0.373432
vn 0.154681 0.914670 0.373432
vn 0.154681 0.914670 0.373432
vn 0.373433 0.914670 0.154681
vn 0.373433 0.914671 0.154681
vn 0.373433 0.914670 0.154681
vn 0.373433 0.914670 0.154681
vn 0.373432 0.914671 -0.154681
vn 0.373432 0.914671 -0.154681
vn 0.373432 0.914671 -0.154681
vn 0.373432 0.914671 -0.154681
vn 0.357407 0.357407 -0.862856
vn 0.357407 0.357407 -0.862856
vn 0.357407 0.357407 -0.862856
vn 0.357407 0.357407 -0.862856
vn -0.357407 0.357407 -0.862856
vn -0.357407 0.357407 -0.862856
vn -0.357407 0.357407 -0.862856
vn -0.357406 0.357407 -0.862856
vn -0.862856 0.357406 -0.357407
vn -0.862856 0.357407 -0.357407
vn -0.862856 0.357407 -0.357407
vn -0.862856 0.357407 -0.357407
vn -0.862856 0.357407 0.357407
vn -0.862856 0.357407 0.357407
vn -0.862856 0.357407 0.357407
vn -0.862856 0.357407 0.357407
vn -0.357407 0.357407 0.862856
vn -0.357407 0.357407 0.862856
vn -0.357407 0.357407 0.862856
vn -0.357407 0.357407 0.862856
vn 0.357406 0.357407 0.862856
vn 0.357407 0.357407 0.862856
vn 0.357407 0.357407 0.862856
vn 0.357407 0.357407 0.862856
vn 0.862856 0.357407 0.357407
vn 0.862856 0.357407 0.357407
vn 0.862856 0.357407 0.357407
vn 0.862856 0.357407 0.357407
vn 0.862856 0.357407 -0.357407
vn 0.862856 0.357407 -0.357407
vn 0.862856 0.357407 -0.357407
vn 0.862856 0.357407 -0.357407
vn 0.357406 -0.357407 -0.862856
vn 0.357407 -0.357407 -0.862856
vn 0.357407 -0.357407 -0.862856
vn 0.357407 -0.357407 -0.862856
vn -0.357407 -0.357407 -0.862856
vn -0.357407 -0.357407 -0.862856
vn -0.357407 -0.357407 -0.862856
vn -0.357407 -0.357407 -0.862856
vn -0.862856 -0.357407 -0.357407
vn -0.862856 -0.357407 -0.357407
vn -0.862856 -0.357407 -0.357407
vn -0.862856 -0.357406 -0.357407
vn -0.862856 -0.357407 0.357407
vn -0.862856 -0.357407 0.357407
vn -0.862856 -0.357407 0.357407
vn -0.862856 -0.357406 0.357407
vn -0.357407 -0.357407 0.862856
vn -0.357407 -0.357407 0.862856
vn -0.357407 -0.357407 0.862856
vn -0.357407 -0.357407 0.862856
vn 0.357407 -0.357407 0.862856
vn 0.357407 -0.357407 0.862856
vn 0.357407 -0.357407 0.862856
vn 0.357407 -0.357407 0.862856
vn 0.862856 -0.357407 0.357407
vn 0.862856 -0.357407 0.357407
vn 0.862856 -0.357407 0.357407
vn 0.862856 -0.357407 0.357407
vn 0.862856 -0.357407 -0.357407
vn 0.862856 -0.357407 -0.357407
vn 0.862856 -0.357407 -0.357407
vn 0.862856 -0.357407 -0.357407
vn 0.044511 -0.993213 -0.107460
vn 0.044511 -0.993213 -0.107460
vn 0.044511 -0.993213 -0.107460
vn -0.044511 -0.993213 -0.107460
vn -0.044511 -0.993213 -0.107460
vn -0.044511 -0.993213 -0.107460
vn -0.107460 -0.993213 -0.044511
vn -0.107460 -0.993213 -0.044511
vn -0.107460 -0.993213 -0.044511
vn -0.107460 -0.993213 0.044511
vn -0.107460 -0.993213 0.044511
vn -0.107460 -0.993213 0.044511
vn -0.044511 -0.993213 0.107460
vn -0.044511 -0.993213 0.107460
vn -0.044511 -0.993213 0.107460
vn 0.044511 -0.993213 0.107460
vn 0.044511 -0.993213 0.107460
vn 0.044511 -0.993213 0.107460
vn 0.107460 -0.993213 0.044511
vn 0.107460 -0.993213 0.044511
vn 0.107460 -0.993213 0.044511
vn 0.107460 -0.993213 -0.044511
vn 0.107460 -0.993213 -0.044511
vn 0.107460 -0.993213 -0.044511
vn 0.541419 0.810291 0.224263
vn 0.541419 0.810291 0.224263
vn 0.541419 0.810291 0.224263
vn 0.306123 -0.438423 0.845029
vn 0.306123 -0.438421 0.845030
vn 0.306123 -0.438422 0.845030
vn 0.306123 -0.438423 0.845029
vn 0.124594 0.186468 -0.974529
vn 0.124594 0.186468 -0.974529
vn 0.124594 0.186468 -0.974529
vn 0.124594 0.186468 -0.974529
vn -0.748612 0.586027 -0.310086
vn -0.748610 0.586028 -0.310087
vn -0.748612 0.586027 -0.310085
vn -0.748611 0.586027 -0.310086
vn 0.381065 -0.438423 0.813987
vn 0.381064 -0.438421 0.813989
vn 0.381065 -0.438423 0.813987
vn 0.381064 -0.438420 0.813989
vn 0.310085 0.586026 -0.748613
vn 0.310086 0.586028 -0.748611
vn 0.310085 0.586026 -0.748613
vn 0.310085 0.586028 -0.748611
vn -0.777195 0.186467 -0.600997
vn -0.777198 0.186467 -0.600993
vn -0.777196 0.186467 -0.600996
vn -0.777197 0.186467 -0.600995
vn 0.306124 -0.438421 0.845030
vn 0.306123 -0.438425 0.845028
vn 0.124594 0.186468 -0.974528
vn 0.124593 0.186467 -0.974529
vn -0.748612 0.586027 -0.310085
vn -0.748613 0.586026 -0.310085
vn 0.381065 -0.438423 0.813987
vn 0.381064 -0.438420 0.813989
vn 0.310085 0.586026 -0.748612
vn 0.310085 0.586028 -0.748611
vn -0.777197 0.186467 -0.600995
vn -0.777195 0.186466 -0.600997
vn 0.492871 0.812928 0.310203
vn 0.617355 0.580834 0.530570
vn 0.615036 0.745885 0.255709
vn 0.617352 0.580834 0.530573
vn 0.490002 -0.094989 0.866530
vn 0.490002 -0.094989 0.866530
vn 0.490003 -0.094987 0.866530
vn 0.490003 -0.094987 0.866530
vn 0.266245 -0.094987 0.959214
vn 0.266243 -0.094988 0.959214
vn 0.266245 -0.094988 0.959214
vn 0.266243 -0.094988 0.959214
vn -0.129164 0.812927 0.567861
vn -0.254083 0.745885 0.615708
vn -0.061364 0.580830 0.811709
vn -0.061365 0.580834 0.811706
vn 0.510698 0.847456 0.144933
vn -0.258635 0.847457 0.463600
vn 0.547886 0.819969 -0.165746
vn 0.413086 0.908921 -0.056774
vn 0.322291 0.482343 -0.814539
vn 0.322291 0.482342 -0.814540
vn 0.322291 0.482343 -0.814539
vn 0.322290 0.482342 -0.814540
vn -0.484452 0.851492 -0.200667
vn -0.484452 0.851492 -0.200667
vn -0.484452 0.851493 -0.200664
vn -0.484452 0.851493 -0.200663
vn 0.213724 0.972875 0.088526
vn -0.088527 0.972876 0.213717
vn -0.332242 0.908920 0.251953
vn 0.200668 0.851491 -0.484453
vn 0.200670 0.851493 -0.484450
vn 0.200668 0.851491 -0.484453
vn 0.200670 0.851493 -0.484449
vn -0.803860 0.482344 -0.348070
vn -0.803860 0.482344 -0.348070
vn -0.803860 0.482341 -0.348074
vn -0.803860 0.482341 -0.348075
vn -0.504613 0.819970 0.270213
s 1
g pSphere2
usemtl initialShadingGroup
f 1/1/1 2/2/2 9/9/3
f 9/9/3 2/2/2 10/10/4
s 2
f 2/2/5 3/3/6 10/10/7
f 10/10/7 3/3/6 11/11/8
s 3
f 3/3/9 4/4/10 11/11/11
f 11/11/11 4/4/10 12/12/12
s 4
f 4/4/13 5/5/14 12/12/15
f 12/12/15 5/5/14 13/13/16
s 5
f 5/101/17 6/6/18 13/99/19
f 13/99/19 6/6/18 14/14/20
s 6
f 6/6/21 7/7/22 14/14/23
f 14/14/23 7/7/22 15/15/24
s 7
f 7/7/25 8/8/26 15/15/27
f 15/15/27 8/8/26 16/16/28
s 8
f 8/100/29 1/1/30 16/98/31
f 16/98/31 1/1/30 9/9/32
s 9
f 9/9/33 10/10/34 17/17/35
f 17/17/35 10/10/34 18/18/36
s 10
f 10/10/37 11/11/38 18/18/39
f 18/18/39 11/11/38 19/19/40
s 11
f 11/11/41 12/12/42 19/19/43
f 19/19/43 12/12/42 20/20/44
s 12
f 12/12/45 13/13/46 20/20/47
f 20/20/47 13/13/46 21/21/48
s 13
f 13/99/49 14/14/50 21/97/51
f 21/97/51 14/14/50 22/22/52
s 14
f 14/14/53 15/15/54 22/22/55
f 22/22/55 15/15/54 23/23/56
s 15
f 15/15/57 16/16/58 23/23/59
f 23/23/59 16/16/58 24/95/60
s 16
f 16/98/61 9/9/62 24/116/63
f 24/116/63 9/9/62 17/17/64
s 17
f 17/17/65 18/18/66 25/25/67
f 25/25/67 18/18/66 26/26/68
s 18
f 18/18/69 19/19/70 26/26/71
f 26/26/71 19/19/70 27/27/72
s 19
f 19/19/73 20/20/74 27/27/75
f 27/27/75 20/20/74 28/28/76
s 20
f 20/20/77 21/21/78 28/28/79
f 28/28/79 21/21/78 29/29/80
s off
f 21/97/81 22/22/82 30/96/83
s 21
f 22/22/84 23/23/85 30/96/86
f 30/96/86 23/23/85 31/94/87
s 22
f 24/116/88 17/17/89 32/32/90
f 32/32/90 17/17/89 25/25/91
s off
f 25/25/92 26/26/93 33/33/94
f 26/26/95 27/27/96 33/33/97
f 27/27/98 28/28/99 33/33/100
f 28/28/101 29/29/102 33/33/103
f 29/29/104 30/109/105 33/33/106
f 30/109/107 31/31/108 33/33/109
f 31/31/110 32/32/111 33/33/112
f 32/32/113 25/25/114 33/33/115
s 23
f 2/34/116 1/35/117 35/37/118
f 35/37/118 1/35/117 34/36/119
s 24
f 3/38/120 2/34/121 36/39/122
f 36/39/122 2/34/121 35/37/123
s 25
f 4/40/124 3/38/125 37/41/126
f 37/41/126 3/38/125 36/39/127
s 26
f 5/42/128 4/40/129 38/43/130
f 38/43/130 4/40/129 37/41/131
s 27
f 6/44/132 5/42/133 39/45/134
f 39/45/134 5/42/133 38/43/135
s 28
f 7/46/136 6/44/137 40/47/138
f 40/47/138 6/44/137 39/45/139
s 29
f 8/48/140 7/46/141 41/49/142
f 41/49/142 7/46/141 40/47/143
s 30
f 1/50/144 8/48/145 34/51/146
f 34/51/146 8/48/145 41/49/147
s 31
f 35/37/148 34/36/149 43/53/150
f 43/53/150 34/36/149 42/52/151
s 32
f 36/39/152 35/37/153 44/54/154
f 44/54/154 35/37/153 43/53/155
s 33
f 37/41/156 36/39/157 45/55/158
f 45/55/158 36/39/157 44/54/159
s 34
f 38/43/160 37/41/161 46/56/162
f 46/56/162 37/41/161 45/55/163
s 35
f 39/45/164 38/43/165 47/57/166
f 47/57/166 38/43/165 46/56/167
s 36
f 40/47/168 39/45/169 48/58/170
f 48/58/170 39/45/169 47/57/171
s 37
f 41/49/172 40/47/173 49/59/174
f 49/59/174 40/47/173 48/58/175
s 38
f 34/51/176 41/49/177 42/60/178
f 42/60/178 41/49/177 49/59/179
s 39
f 43/53/180 42/52/181 51/62/182
f 51/62/182 42/52/181 50/118/183
s 40
f 44/54/184 43/53/185 52/63/186
f 52/63/186 43/53/185 51/62/187
s 41
f 45/55/188 44/54/189 53/64/190
f 53/64/190 44/54/189 52/63/191
s 42
f 46/56/192 45/55/193 54/65/194
f 54/65/194 45/55/193 53/64/195
s 43
f 47/57/196 46/56/197 55/66/198
f 55/66/198 46/56/197 54/65/199
s 44
f 48/58/200 47/57/201 56/67/202
f 56/67/202 47/57/201 55/66/203
s 45
f 49/59/204 48/58/205 57/68/206
f 57/68/206 48/58/205 56/67/207
s 46
f 42/60/208 49/59/209 50/61/210
f 50/61/210 49/59/209 57/68/211
s off
f 51/62/212 50/118/213 58/69/214
f 52/63/215 51/62/216 58/69/217
f 53/64/218 52/63/219 58/69/220
f 54/65/221 53/64/222 58/69/223
f 55/66/224 54/65/225 58/69/226
f 56/67/227 55/66/228 58/69/229
f 57/68/230 56/67/231 58/69/232
f 50/61/233 57/68/234 58/69/235
f 23/23/236 24/95/237 31/94/238
s 47
f 31/117/239 24/24/240 59/115/241
f 59/115/241 24/24/240 60/71/242
s 48
f 24/116/243 32/32/244 60/114/245
f 60/114/245 32/32/244 61/72/246
s 49
f 32/32/247 31/31/248 61/72/249
f 61/72/249 31/31/248 59/70/250
s 50
f 21/108/251 30/30/252 63/106/253
f 63/106/253 30/30/252 62/74/254
s 51
f 30/109/255 29/29/256 62/107/257
f 62/107/257 29/29/256 64/75/258
s 52
f 29/29/259 21/21/260 64/75/261
f 64/75/261 21/21/260 63/73/262
s 47
f 59/115/241 60/71/242 65/81/263
f 65/81/263 60/71/242 66/110/264
s 48
f 60/114/245 61/72/246 66/80/265
f 66/80/265 61/72/246 67/82/266
s 49
f 61/72/249 59/70/250 67/82/267
f 67/82/267 59/70/250 65/113/268
s 50
f 63/106/253 62/74/254 69/84/269
f 69/84/269 62/74/254 68/83/270
s 51
f 62/107/257 64/75/258 68/105/271
f 68/105/271 64/75/258 70/85/272
s 52
f 64/75/261 63/73/262 70/85/273
f 70/85/273 63/73/262 69/103/274
s 53
f 72/77/275 71/88/276 73/78/277
f 73/78/277 71/88/276 74/89/278
s 54
f 71/112/279 65/81/280 74/111/281
f 74/111/281 65/81/280 66/110/282
s 55
f 78/104/283 79/102/284 68/83/285
f 68/83/285 79/102/284 69/84/286
s 56
f 77/76/287 80/87/288 78/91/289
f 78/91/289 80/87/288 79/92/290
s 53
f 72/77/275 73/78/277 75/86/291
s 56
f 80/87/288 77/76/287 81/79/292
s 53
f 74/89/293 76/90/294 73/78/277
f 73/78/277 76/90/294 75/86/291
s 57
f 66/80/295 67/82/296 74/89/297
f 74/89/297 67/82/296 76/90/298
s 58
f 65/113/299 71/88/300 67/82/301
f 67/82/301 71/88/300 76/90/302
s 53
f 71/88/303 72/77/275 76/90/294
f 76/90/294 72/77/275 75/86/291
s 56
f 78/91/304 82/93/305 77/76/287
f 77/76/287 82/93/305 81/79/292
s 59
f 68/105/306 70/85/307 78/91/308
f 78/91/308 70/85/307 82/93/309
s 60
f 69/103/310 79/92/311 70/85/312
f 70/85/312 79/92/311 82/93/313
s 56
f 79/92/314 80/87/288 82/93/305
f 82/93/305 80/87/288 81/79/292
